<svg id="Calque_1" data-name="Calque 1" xmlns="http://www.w3.org/2000/svg" xmlns:xlink="http://www.w3.org/1999/xlink" viewBox="0 0 360 359.99"><defs><style>.cls-1{fill:url(#Dégradé_sans_nom);}.cls-2{fill:#fff;}</style><linearGradient id="Dégradé_sans_nom" x1="0.07" y1="511.93" x2="0.93" y2="511.07" gradientTransform="matrix(360, 0, 0, -359.99, 0, 184315.67)" gradientUnits="userSpaceOnUse"><stop offset="0" stop-color="#f94f7b"/><stop offset="1" stop-color="#fe3232"/></linearGradient></defs><path class="cls-1" d="M360,112.61q0-6.45,0-12.9c0-3.62-.06-7.24-.16-10.86a157.54,157.54,0,0,0-2.08-23.64,79.88,79.88,0,0,0-7.41-22.49,75.64,75.64,0,0,0-33.06-33A80.07,80.07,0,0,0,294.8,2.26,157.67,157.67,0,0,0,271.15.18C267.53.08,263.91,0,260.29,0q-6.45,0-12.9,0H112.61q-6.45,0-12.9,0c-3.62,0-7.24.06-10.86.16A157.68,157.68,0,0,0,65.2,2.27,79.65,79.65,0,0,0,42.73,9.68,75.64,75.64,0,0,0,9.67,42.73,79.88,79.88,0,0,0,2.26,65.22,157.65,157.65,0,0,0,.18,88.86C.08,92.48,0,96.1,0,99.72q0,6.44,0,12.89V247.38q0,6.45,0,12.9c0,3.62.06,7.24.16,10.86a157.54,157.54,0,0,0,2.08,23.64,79.88,79.88,0,0,0,7.41,22.49,75.64,75.64,0,0,0,33.06,33.05,80.07,80.07,0,0,0,22.47,7.41,157.67,157.67,0,0,0,23.65,2.08c3.62.1,7.24.14,10.86.16,4.3,0,8.6,0,12.9,0H247.38q6.45,0,12.9,0c3.62,0,7.24-.06,10.86-.16a157.67,157.67,0,0,0,23.65-2.08,79.65,79.65,0,0,0,22.47-7.41,75.64,75.64,0,0,0,33.06-33.05,79.88,79.88,0,0,0,7.41-22.49,157.65,157.65,0,0,0,2.08-23.64c.1-3.62.14-7.24.16-10.86,0-4.3,0-8.6,0-12.9V112.61Z"/><path class="cls-2" d="M254.5,55c-.87.08-8.6,1.45-9.53,1.64L138,78.23h0a14.92,14.92,0,0,0-6.67,3,10.88,10.88,0,0,0-3.6,7,24.39,24.39,0,0,0-.24,3.62V225.73c0,3.13-.25,6.17-2.37,8.76s-4.74,3.37-7.81,4l-7,1.41c-8.84,1.78-14.59,3-19.8,5a31.08,31.08,0,0,0-11.68,7.51,28.48,28.48,0,0,0,1.42,40.2,27,27,0,0,0,13,6.66c5.33,1.07,11,.7,19.31-1a39.28,39.28,0,0,0,12.5-4.61,31.4,31.4,0,0,0,9.85-9.11,33.28,33.28,0,0,0,5.24-12.35A62,62,0,0,0,141.27,259V142.81c0-6.22,1.76-7.86,6.78-9.08,0,0,88.94-17.94,93.09-18.75,5.79-1.11,8.52.54,8.52,6.61v79.29c0,3.14,0,6.32-2.17,8.92s-4.74,3.37-7.81,4l-7,1.41c-8.84,1.78-14.59,3-19.8,5a31.08,31.08,0,0,0-11.68,7.51,28,28,0,0,0,1.42,40.2,27,27,0,0,0,13,6.6c5.33,1.07,11,.69,19.31-1a39.16,39.16,0,0,0,12.5-4.55,31.4,31.4,0,0,0,9.85-9.11,33.28,33.28,0,0,0,5.24-12.35,61.8,61.8,0,0,0,1-13.26V64.46c0-6.16-3.23-10-9-9.46Z"/></svg>